<svg width="20" height="20" viewBox="0 0 20 20" fill="none" xmlns="http://www.w3.org/2000/svg">
<g clip-path="url(#clip0)">
<path d="M8.1912 16.3904C9.87762 16.3904 11.4356 15.8765 12.7365 15.0092L17.4424 19.7151C17.812 20.0845 18.4223 20.0845 18.8076 19.7151L19.7231 18.7996C20.0925 18.4302 20.0925 17.8199 19.7231 17.4344L15.0011 12.7446C15.8683 11.4436 16.3824 9.88567 16.3824 8.19925C16.3824 3.68606 12.7044 0.00805664 8.1912 0.00805664C3.67801 0.00805664 0 3.68606 0 8.19925C0 12.7123 3.66195 16.3904 8.1912 16.3904ZM8.1912 3.22029C10.9377 3.22029 13.1702 5.45279 13.1702 8.19925C13.1702 10.9457 10.9377 13.1782 8.1912 13.1782C5.44474 13.1782 3.21223 10.9457 3.21223 8.19925C3.21223 5.45279 5.44474 3.22029 8.1912 3.22029Z" fill="black"/>
</g>
<defs>
<clipPath id="clip0">
<rect width="20" height="20" fill="white"/>
</clipPath>
</defs>
</svg>
